<svg width="24" height="24" viewBox="0 0 24 24" fill="none" xmlns="http://www.w3.org/2000/svg">
<path d="M13.0018 7.0089C16.1703 7.0089 17.9678 9.1062 18.2292 11.639L18.3092 11.639C20.3482 11.639 22.0012 13.2878 22.0012 15.3216C22.0012 17.3554 20.3482 19.0041 18.3092 19.0041H7.69443C5.65535 19.0041 4.00235 17.3554 4.00235 15.3216C4.00235 13.2878 5.65535 11.639 7.69445 11.639L7.77439 11.639C8.03733 9.08955 9.83326 7.0089 13.0018 7.0089ZM13.0018 8.50649C10.9305 8.50649 9.12508 10.1397 9.12508 12.3957C9.12508 12.7532 8.80613 13.0337 8.44092 13.0336L7.75037 13.0336C6.48937 13.0336 5.46714 14.0349 5.46714 15.2701C5.46714 16.5052 6.48937 17.5065 7.75037 17.5065H18.2532C19.5142 17.5065 20.5364 16.5052 20.5364 15.2701C20.5364 14.0349 19.5142 13.0336 18.2532 13.0336L17.5627 13.0336C17.1975 13.0337 16.8785 12.7532 16.8785 12.3957C16.8785 10.1108 15.0731 8.50649 13.0018 8.50649ZM4.36742 11.1643C4.51272 11.5151 4.37213 11.913 4.05293 12.099L3.96152 12.1443L3.03526 12.5279C2.65257 12.6864 2.21385 12.5047 2.05533 12.122C1.91003 11.7712 2.05062 11.3734 2.36983 11.1874L2.46123 11.1421L3.3875 10.7584C3.77018 10.5999 4.20891 10.7817 4.36742 11.1643ZM10.8544 6.33113L10.6828 6.38871C10.1487 6.57739 9.66002 6.83279 9.22254 7.14679C8.68912 6.97292 8.09283 6.98126 7.53334 7.21301C6.28755 7.72904 5.69595 9.15727 6.21198 10.4031C6.27258 10.5494 6.34578 10.6867 6.42978 10.8142C5.93756 10.9516 5.4766 11.1701 5.06324 11.4535C4.97442 11.3033 4.89523 11.1438 4.82616 10.9771C3.99311 8.96593 4.94815 6.66024 6.95931 5.82719C8.30161 5.2712 9.77511 5.51172 10.8544 6.33113ZM2.94067 6.36222L3.04618 6.39712L3.97244 6.78079C4.35512 6.9393 4.53685 7.37803 4.37834 7.76071C4.23424 8.1086 3.85855 8.29042 3.50392 8.20151L3.39842 8.16661L2.47215 7.78294C2.08947 7.62442 1.90774 7.1857 2.06625 6.80301C2.21036 6.45512 2.58604 6.2733 2.94067 6.36222ZM6.75589 3.37579L6.80117 3.4672L7.18484 4.39346C7.34335 4.77614 7.16162 5.21487 6.77894 5.37338C6.42815 5.51869 6.03026 5.37809 5.84429 5.05889L5.79902 4.96749L5.41535 4.04122C5.25683 3.65854 5.43856 3.21981 5.82124 3.0613C6.17204 2.916 6.56992 3.05659 6.75589 3.37579ZM11.1092 3.05729C11.4571 3.20139 11.6389 3.57707 11.55 3.9317L11.5151 4.03721L11.1315 4.96347C10.9729 5.34616 10.5342 5.52788 10.1515 5.36937C9.80364 5.22527 9.62183 4.84959 9.71074 4.49495L9.74564 4.38945L10.1293 3.46318C10.2878 3.0805 10.7266 2.89877 11.1092 3.05729Z" fill="#212121"/>
</svg>
